<svg width="50" height="50" viewBox="0 0 90 90" fill="none" xmlns="http://www.w3.org/2000/svg">
    <circle cx="43" cy="43" r="43" fill="#2B2B2B" />
    <path
        d="M43.7769 47.2271C46.2822 47.3572 48.8131 47.2531 51.2673 47.6437C55.5366 48.3207 58.86 52.6172 58.8344 56.9917C58.8344 58.3718 58.3231 59.5175 57.275 60.4029C49.3755 67.173 37.8715 67.173 29.972 60.4029C28.0802 58.7884 28.208 56.7053 28.7705 54.5701C29.8442 50.4559 33.6789 47.4354 37.8715 47.3572C39.8399 47.3312 41.7828 47.3572 43.7513 47.3572C43.7769 47.3052 43.7769 47.2531 43.7769 47.2271Z"
        fill="#626262" />
    <path
        d="M43.6014 42.6447C38.3862 42.6447 34.0914 38.3222 34.0658 33.0363C34.0402 27.6722 38.3351 23.2976 43.627 23.2716C48.8933 23.2456 53.2138 27.6201 53.2138 32.9842C53.2138 38.3222 48.9189 42.6447 43.6014 42.6447Z"
        fill="#626262" />
</svg>