<svg width="70" height="70" viewBox="0 0 100 120" fill="none" xmlns="http://www.w3.org/2000/svg">
    <rect width="120" height="120" fill="#404040" />
    <path
        d="M57.3896 57.7842V66.9565H25.7148V57.7842H57.3896ZM46.5986 45.7236V79.3662H36.6011V45.7236H46.5986ZM81.6694 30.521V39.7568H76.623V30.521H81.6694ZM81.0347 82.3496V90.9189H75.9883V82.3496H81.0347ZM83.1611 71.749C83.1611 70.5853 82.9813 69.6226 82.6216 68.8608C82.2619 68.0991 81.68 67.4326 80.876 66.8613C80.0719 66.29 79.0034 65.7188 77.6704 65.1475C74.8563 64.0049 72.3701 62.8306 70.2119 61.6245C68.0749 60.4185 66.3927 58.9162 65.1655 57.1177C63.9595 55.3192 63.3564 52.9811 63.3564 50.1035C63.3564 47.4798 64.0018 45.1947 65.2925 43.248C66.6043 41.3014 68.4028 39.7992 70.688 38.7412C72.9943 37.6621 75.6497 37.1226 78.6543 37.1226C80.9395 37.1226 83.0236 37.4611 84.9067 38.1382C86.7899 38.8153 88.4191 39.7992 89.7944 41.0898C91.1698 42.3594 92.2277 43.9251 92.9683 45.7871C93.7088 47.6279 94.0791 49.7227 94.0791 52.0713H83.3833C83.3833 50.8652 83.2563 49.8285 83.0024 48.9609C82.7697 48.0934 82.4312 47.3846 81.9868 46.8345C81.5425 46.2843 81.0241 45.8823 80.4316 45.6284C79.8392 45.3534 79.1938 45.2158 78.4956 45.2158C77.4377 45.2158 76.5807 45.4486 75.9248 45.9141C75.2689 46.3584 74.7928 46.9508 74.4966 47.6914C74.2004 48.432 74.0522 49.2572 74.0522 50.167C74.0522 51.1191 74.2109 51.9549 74.5283 52.6743C74.8669 53.3726 75.4382 54.0285 76.2422 54.6421C77.0462 55.2345 78.1465 55.8481 79.543 56.4829C82.2936 57.6466 84.748 58.8527 86.9062 60.1011C89.0645 61.3494 90.7572 62.8835 91.9844 64.7031C93.2327 66.5016 93.8569 68.8291 93.8569 71.6855C93.8569 74.4362 93.2116 76.7848 91.9209 78.7314C90.6302 80.6569 88.8317 82.1274 86.5254 83.1431C84.2191 84.1587 81.5531 84.6665 78.5273 84.6665C76.4961 84.6665 74.4754 84.402 72.4653 83.873C70.4764 83.3441 68.6567 82.4871 67.0063 81.3022C65.3771 80.0962 64.0758 78.4987 63.1025 76.5098C62.1292 74.5208 61.6426 72.077 61.6426 69.1782H72.3384C72.3384 70.5959 72.5076 71.7808 72.8462 72.7329C73.1847 73.6851 73.6396 74.4468 74.2109 75.0181C74.8034 75.5682 75.4699 75.9702 76.2104 76.2241C76.951 76.4569 77.7233 76.5732 78.5273 76.5732C79.6064 76.5732 80.4845 76.3617 81.1616 75.9385C81.8387 75.4941 82.3359 74.9123 82.6533 74.1929C82.9919 73.4523 83.1611 72.6377 83.1611 71.749Z"
        fill="#FFC224" />
</svg>